<svg xmlns="http://www.w3.org/2000/svg"  viewBox="0 0 48 48" width="48px" height="48px"><path d="M 24 7.0019531 C 21.046 7.0019531 18.336922 7.8281719 16.419922 9.2011719 C 16.099922 9.4271719 15.952719 9.8008281 16.011719 10.173828 C 15.003719 10.640828 14.108688 11.268953 13.304688 12.001953 L 11.998047 12.001953 C 11.446047 12.001953 10.998047 12.441953 10.998047 13.001953 L 10.998047 14.001953 L 4.9980469 14.001953 C 3.8940469 14.001953 2.9980469 14.894953 2.9980469 16.001953 L 2.9980469 23.001953 C 2.9980469 24.894953 3.8050469 25.868953 4.9980469 26.001953 L 21.996094 27.880859 L 21.996094 27.013672 C 21.996094 26.453672 22.454578 26.001953 23.017578 26.001953 L 24.976562 26.001953 C 25.538563 26.001953 25.996094 26.453672 25.996094 27.013672 L 25.996094 27.880859 L 42.994141 26.001953 C 44.187141 25.868953 44.994141 24.894953 44.994141 23.001953 L 44.996094 16.001953 C 44.996094 14.894953 44.100094 14.001953 42.996094 14.001953 L 36.992188 14.001953 L 36.992188 13.001953 C 36.992188 12.441953 36.544187 12.001953 35.992188 12.001953 L 34.683594 12.001953 C 33.881594 11.267953 32.986422 10.653828 31.982422 10.173828 C 32.041422 9.8008281 31.896172 9.4281719 31.576172 9.2011719 C 29.660172 7.8281719 26.952 7.0019531 24 7.0019531 z M 24 9.0019531 C 26.607 9.0019531 28.892016 9.735125 30.416016 10.828125 C 30.683016 11.014125 31.013687 11.053937 31.304688 10.960938 C 31.948688 11.240938 32.546516 11.588953 33.103516 12.001953 L 32.994141 12.001953 C 32.442141 12.001953 31.994141 12.441953 31.994141 13.001953 L 31.994141 14.001953 L 15.996094 14.001953 L 15.996094 13.001953 C 15.996094 12.441953 15.548094 12.001953 14.996094 12.001953 L 14.884766 12.001953 C 15.443766 11.588953 16.0405 11.240937 16.6875 10.960938 C 16.69403 10.960937 16.700172 10.948784 16.705078 10.947266 L 16.707031 10.947266 C 16.813031 11.067266 17.244078 11.068125 17.580078 10.828125 C 19.105078 9.734125 21.391 9.0019531 24 9.0019531 z M 7.8691406 16.005859 C 10.395656 15.975859 13.947797 16.035078 13.998047 16.455078 C 14.059047 16.975078 7.680625 17.895281 6.015625 17.988281 C 5.500625 18.041281 5.0479062 17.654422 5.0039062 17.107422 C 4.9579063 16.574422 5.3365625 16.107688 5.8515625 16.054688 C 6.2975625 16.034688 7.0269687 16.015859 7.8691406 16.005859 z M 2.9960938 26.054688 L 2.9960938 46.001953 C 2.9960938 46.378267 3.1069011 46.725209 3.2871094 47.025391 C 1.9769451 47.080209 -0.001953125 47.25972 -0.001953125 47.494141 C -0.001953125 47.774141 2.8900469 48.001953 3.9980469 48.001953 L 4.9960938 48.001953 L 4.9980469 48.001953 L 42.996094 48.001953 C 42.996756 48.001953 42.997385 48.001954 42.998047 48.001953 L 43.998047 48.001953 C 45.106047 48.001953 47.998047 47.774141 47.998047 47.494141 C 47.998047 47.259389 46.015059 47.079912 44.705078 47.025391 C 44.885247 46.725209 44.996094 46.378267 44.996094 46.001953 L 44.994141 26.054688 C 44.518141 26.574688 43.882516 26.908281 43.103516 26.988281 L 41.994141 27.121094 L 41.994141 45.494141 C 41.994141 45.774141 41.769141 46.001953 41.494141 46.001953 C 41.218141 46.001953 40.994141 45.774141 40.994141 45.494141 L 40.994141 27.228516 L 25.998047 28.894531 L 25.998047 30.974609 C 25.998047 31.548609 25.539562 32.001953 24.976562 32.001953 L 23.017578 32.001953 C 22.455578 32.001953 21.996094 31.547609 21.996094 30.974609 L 21.996094 28.894531 L 6.9960938 27.228516 L 6.9980469 45.492188 C 6.9980469 45.772187 6.7730469 46 6.4980469 46 C 6.2220469 46 5.9980469 45.772188 5.9980469 45.492188 L 5.9960938 27.119141 L 4.8886719 26.986328 C 4.1046719 26.906328 3.4680937 26.574687 2.9960938 26.054688 z M 22.998047 30.001953 L 22.998047 31.001953 L 25 31.001953 L 25 30.001953 L 22.998047 30.001953 z M 8.9960938 45.001953 L 10.998047 45.001953 L 10.998047 47.001953 L 8.9960938 47.001953 L 8.9960938 45.001953 z M 36.990234 45.001953 L 38.992188 45.001953 L 38.992188 47.001953 L 36.990234 47.001953 L 36.990234 45.001953 z"/></svg>